<svg id="visual" viewBox="0 0 1920 1080" width="1920" height="1080" xmlns="http://www.w3.org/2000/svg" xmlns:xlink="http://www.w3.org/1999/xlink" version="1.1"><rect x="0" y="0" width="1920" height="1080" fill="#FFFFFF"></rect><defs><linearGradient id="grad1_0" x1="43.8%" y1="100%" x2="100%" y2="0%"><stop offset="14.444444444444446%" stop-color="#ffffff" stop-opacity="1"></stop><stop offset="85.55555555555554%" stop-color="#ffffff" stop-opacity="1"></stop></linearGradient></defs><defs><linearGradient id="grad2_0" x1="0%" y1="100%" x2="56.3%" y2="0%"><stop offset="14.444444444444446%" stop-color="#ffffff" stop-opacity="1"></stop><stop offset="85.55555555555554%" stop-color="#ffffff" stop-opacity="1"></stop></linearGradient></defs><g transform="translate(1920, 1080)"><path d="M-486 0C-484.8 -52.5 -483.5 -105 -462.2 -150.2C-440.9 -195.3 -399.4 -233.1 -359.2 -261C-319 -288.9 -279.9 -306.9 -246.3 -339C-212.7 -371.1 -184.5 -417.3 -144.3 -444.1C-104.2 -471 -52.1 -478.5 0 -486L0 0Z" fill="#55E6C1"></path></g><g transform="translate(0, 0)"><path d="M486 0C468.9 45 451.8 90.1 442.2 143.7C432.7 197.3 430.7 259.6 393.2 285.7C355.6 311.7 282.5 301.7 239.2 329.3C196 356.9 182.6 422.2 147.7 454.6C112.8 487 56.4 486.5 0 486L0 0Z" fill="#55E6C1"></path></g></svg>